# xmcd
#
# Track frame offsets: 
#        150
#        14262
#        27936
#        41346
#        57906
#        73949
#        92032
#        104000
#        116568
#        131874
#        148222
#
# Disc length: 2163 seconds
#
# Revision: 0
# Processed by: cddbd v1.5.2PL0 Copyright (c) Steve Scherf et al.
# Submitted via: ExactAudioCopy v1.3
#
DISCID=a208710b
DTITLE=Eli Young Band - Fingerprints
DYEAR=2017
DGENRE=Country
TTITLE0=Saltwater Gospel
TTITLE1=Fingerprints
TTITLE2=Never Again
TTITLE3=Old Songs
TTITLE4=Drive
TTITLE5=Skin and Bones
TTITLE6=A Heart Needs A Break
TTITLE7=Once
TTITLE8=Never Land
TTITLE9=God Love The Rain
TTITLE10=The Days I Feel Alone
EXTD=
EXTT0=
EXTT1=
EXTT2=
EXTT3=
EXTT4=
EXTT5=
EXTT6=
EXTT7=
EXTT8=
EXTT9=
EXTT10=
PLAYORDER=
